<svg width="163" height="29" viewBox="0 0 163 29" fill="none" xmlns="http://www.w3.org/2000/svg">
<path d="M8.19287 28.6839H17.7705L31.7329 17.9763L28.1558 17.0029C24.4632 15.8004 18.9244 13.3955 16.905 9.33008C17.3666 12.8229 18.8667 16.0295 21.1745 18.6634L8.19287 28.6839Z" fill="#101828"/>
<path d="M23.5978 0.683594H14.0202L0 11.3912L3.57717 12.3646C7.26973 13.567 12.8086 15.9719 14.8279 20.0374C14.3664 16.5445 12.8663 13.338 10.5584 10.704L23.5978 0.683594Z" fill="#101828"/>
<path d="M49.0455 10.1787C48.6994 10.4077 48.5263 10.8085 48.5263 11.2093C48.5263 11.6674 48.7571 12.0682 49.1609 12.2973C50.0264 12.7554 51.0072 13.0417 51.9881 13.2134C53.2574 13.4425 54.4113 14.0151 55.3921 14.8167C56.2576 15.6183 56.6615 16.7635 56.6038 17.966C56.6615 19.283 56.0845 20.4854 55.046 21.2871C53.892 22.2032 52.4496 22.6613 50.9495 22.5468C48.4686 22.604 46.103 21.6306 44.3145 19.9128L46.3915 17.3934C48.0647 18.8249 49.6225 19.5693 51.0072 19.5693C51.5265 19.6265 52.0458 19.4547 52.5073 19.1684C52.8535 18.9394 53.0843 18.4813 53.0266 18.0805C53.0266 17.6224 52.7958 17.2216 52.4496 16.9926C51.7573 16.5918 50.9495 16.3055 50.1995 16.1909C48.7571 15.9046 47.4301 15.332 46.2184 14.4731C45.4107 13.8433 45.0068 12.7554 45.0068 11.3239C44.8914 10.0069 45.5261 8.74717 46.5646 7.94554C47.7185 7.1439 49.1032 6.68582 50.488 6.74308C51.5265 6.74308 52.565 6.91486 53.6036 7.25842C54.5844 7.60198 55.5075 8.11732 56.3153 8.74717L54.5844 11.2666C53.4305 10.2932 51.9304 9.77785 50.4303 9.77785C49.911 9.72059 49.4494 9.89237 49.0455 10.1787Z" fill="#101828"/>
<path d="M69.124 7.08691H72.5858V22.4325H69.124V16.4203H62.9505V22.4325H59.4888V7.08691H62.9505V13.5H69.124V7.08691Z" fill="#101828"/>
<path d="M76.3936 7.08691H79.8553V22.4325H76.3936V7.08691Z" fill="#101828"/>
<path d="M94.2793 8.46115C95.3755 9.3773 95.8948 10.8088 95.8948 12.6984C95.8948 14.5879 95.3178 15.9622 94.2216 16.8783C93.1254 17.7372 91.3945 18.1953 89.1443 18.1953H87.0672V22.4898H83.6055V7.08691H89.0866C91.4522 7.08691 93.1831 7.54499 94.2793 8.46115ZM91.7406 14.4734C92.2022 13.9008 92.433 13.1564 92.3753 12.4693C92.433 11.725 92.1445 11.0378 91.5676 10.5798C90.8175 10.1789 89.9521 9.9499 89.0866 10.0072H87.1249V15.1605H89.4328C90.529 15.1605 91.3368 14.9315 91.7406 14.4734Z" fill="#101828"/>
<path d="M103.395 15.9049L106.165 7.08691H109.742L112.454 15.9049L115.512 7.08691H119.262L113.896 22.4325H111.358L107.953 11.7822L104.607 22.4325H102.011L96.645 7.08691H100.395L103.395 15.9049Z" fill="#101828"/>
<path d="M132.244 7.08691V10.1217H124.57V13.271H131.494V16.1912H124.57V19.3978H132.532V22.4325H121.166V7.08691H132.244Z" fill="#101828"/>
<path d="M135.59 22.4325V7.08691H139.052V19.3978H145.629V22.4325H135.59Z" fill="#101828"/>
<path d="M148.11 22.4325V7.08691H151.572V19.3978H158.149V22.4325H148.11Z" fill="#101828"/>
<path d="M161.391 7.38045C161.737 7.55223 161.968 7.83853 162.141 8.12483C162.487 8.81194 162.487 9.61358 162.141 10.2434C161.968 10.587 161.679 10.816 161.391 10.9878C160.352 11.5604 159.083 11.2169 158.448 10.1862C158.102 9.55632 158.102 8.75468 158.448 8.06757C158.621 7.72401 158.91 7.49497 159.198 7.32319C159.891 6.97963 160.698 6.97963 161.391 7.38045ZM161.218 10.816C161.506 10.6443 161.737 10.4152 161.91 10.1289C162.256 9.55632 162.256 8.81194 161.91 8.23935C161.737 7.95305 161.506 7.72401 161.218 7.55223C160.641 7.20867 159.891 7.20867 159.314 7.55223C159.025 7.72401 158.794 7.95305 158.679 8.23935C158.333 8.81194 158.333 9.55632 158.679 10.1289C158.794 10.4152 159.025 10.6443 159.314 10.816C159.948 11.1596 160.641 11.1596 161.218 10.816ZM160.871 9.55632L161.275 10.2434H160.929L160.525 9.55632C160.525 9.49906 160.467 9.4418 160.41 9.4418C160.352 9.38454 160.237 9.38454 160.179 9.38454H159.891V10.2434H159.602V8.18209H160.467C160.641 8.18209 160.814 8.23935 160.987 8.35387C161.102 8.46838 161.16 8.64016 161.16 8.81194C161.16 8.98372 161.102 9.09824 161.044 9.21276C160.871 9.27002 160.756 9.32728 160.583 9.32728C160.698 9.38454 160.814 9.49906 160.871 9.55632ZM160.41 9.1555C160.525 9.1555 160.641 9.1555 160.756 9.04098C160.929 8.8692 160.929 8.64016 160.756 8.46838C160.641 8.41113 160.525 8.41113 160.41 8.41113H159.891V9.1555H160.41Z" fill="#101828"/>
</svg>
