<?xml version="1.0" encoding="UTF-8"?>
<svg id="Layer_1" xmlns="http://www.w3.org/2000/svg" version="1.1" viewBox="0 0 1116 420">
  <!-- Generator: Adobe Illustrator 29.3.1, SVG Export Plug-In . SVG Version: 2.1.0 Build 151)  -->
  <defs>
    <style>
      .st0, .st1 {
        fill: #0c0c0c;
      }

      .st1 {
        fill-rule: evenodd;
      }

      .st2 {
        fill: #ff563f;
      }
    </style>
  </defs>
  <g>
    <path class="st0" d="M335.5,279v-98.6h20.2v11.6h3.2c1.9-3.5,4.9-6.5,9-9.2,4.1-2.7,9.7-4,16.8-4s13.2,1.5,17.6,4.6c4.5,2.9,7.9,6.7,10.2,11.4h3.2c2.3-4.5,5.5-8.3,9.8-11.4,4.4-3.1,10.6-4.6,18.6-4.6s12.1,1.3,17,4c4.9,2.5,8.9,6.4,11.8,11.6,2.9,5.1,4.4,11.4,4.4,19v65.6h-20.6v-64c0-6-1.7-10.6-5-13.8-3.2-3.3-7.8-5-13.8-5s-11.5,2.1-15.4,6.2c-3.9,4.1-5.8,10.1-5.8,17.8v58.8h-20.6v-64c0-6-1.7-10.6-5-13.8-3.2-3.3-7.8-5-13.8-5s-11.5,2.1-15.4,6.2c-3.9,4.1-5.8,10.1-5.8,17.8v58.8h-20.6Z"/>
    <path class="st0" d="M537.7,281.8c-7.1,0-13.4-1.2-19-3.6-5.5-2.4-9.9-5.9-13.2-10.6-3.2-4.7-4.8-10.3-4.8-17s1.6-12.4,4.8-16.8c3.3-4.5,7.8-7.9,13.4-10.2,5.7-2.3,12.2-3.4,19.4-3.4h30v-6.4c0-5.7-1.7-10.3-5.2-13.8s-8.8-5.2-16-5.2-12.5,1.7-16.2,5c-3.7,3.3-6.2,7.7-7.4,13l-19.2-6.2c1.6-5.3,4.1-10.1,7.6-14.4,3.6-4.4,8.3-7.9,14.2-10.6,5.9-2.7,12.9-4,21.2-4,12.8,0,22.9,3.3,30.2,9.8,7.3,6.5,11,15.8,11,27.8v40.6c0,4,1.9,6,5.6,6h8.4v17.2h-15.4c-4.7,0-8.5-1.2-11.4-3.6-2.9-2.4-4.4-5.7-4.4-9.8v-.6h-3c-1.1,2-2.7,4.3-4.8,7-2.1,2.7-5.3,5-9.4,7-4.1,1.9-9.6,2.8-16.4,2.8ZM540.7,264.8c8.3,0,14.9-2.3,20-7,5.1-4.8,7.6-11.3,7.6-19.6v-2h-28.8c-5.5,0-9.9,1.2-13.2,3.6-3.3,2.3-5,5.7-5,10.2s1.7,8.1,5.2,10.8c3.5,2.7,8.2,4,14.2,4Z"/>
    <path class="st0" d="M622.5,279v-98.6h20.2v11.6h3.2c1.6-4.1,4.1-7.1,7.6-9,3.6-2,8-3,13.2-3h11.8v18.6h-12.6c-6.7,0-12.1,1.9-16.4,5.6-4.3,3.6-6.4,9.2-6.4,16.8v58h-20.6Z"/>
    <path class="st0" d="M736.9,279c-6,0-10.8-1.8-14.4-5.4-3.5-3.6-5.2-8.4-5.2-14.4v-61.4h-27.2v-17.4h27.2v-32.6h20.6v32.6h29.4v17.4h-29.4v57.8c0,4,1.9,6,5.6,6h20.6v17.4h-27.2Z"/>
    <path class="st0" d="M791.5,279v-98.6h20.6v98.6h-20.6ZM801.9,166.9c-4,0-7.4-1.3-10.2-3.8-2.7-2.7-4-6.1-4-10.2s1.3-7.5,4-10c2.8-2.7,6.2-4,10.2-4s7.5,1.3,10.2,4c2.7,2.5,4,5.9,4,10s-1.3,7.5-4,10.2c-2.7,2.5-6.1,3.8-10.2,3.8Z"/>
    <path class="st0" d="M873.3,281.8c-7.1,0-13.4-1.2-19-3.6-5.5-2.4-9.9-5.9-13.2-10.6-3.2-4.7-4.8-10.3-4.8-17s1.6-12.4,4.8-16.8c3.3-4.5,7.8-7.9,13.4-10.2,5.7-2.3,12.2-3.4,19.4-3.4h30v-6.4c0-5.7-1.7-10.3-5.2-13.8-3.5-3.5-8.8-5.2-16-5.2s-12.5,1.7-16.2,5c-3.7,3.3-6.2,7.7-7.4,13l-19.2-6.2c1.6-5.3,4.1-10.1,7.6-14.4,3.6-4.4,8.3-7.9,14.2-10.6,5.9-2.7,12.9-4,21.2-4,12.8,0,22.9,3.3,30.2,9.8,7.3,6.5,11,15.8,11,27.8v40.6c0,4,1.9,6,5.6,6h8.4v17.2h-15.4c-4.7,0-8.5-1.2-11.4-3.6-2.9-2.4-4.4-5.7-4.4-9.8v-.6h-3c-1.1,2-2.7,4.3-4.8,7-2.1,2.7-5.3,5-9.4,7-4.1,1.9-9.6,2.8-16.4,2.8ZM876.3,264.8c8.3,0,14.9-2.3,20-7,5.1-4.8,7.6-11.3,7.6-19.6v-2h-28.8c-5.5,0-9.9,1.2-13.2,3.6-3.3,2.3-5,5.7-5,10.2s1.7,8.1,5.2,10.8c3.5,2.7,8.2,4,14.2,4Z"/>
    <path class="st0" d="M958.2,279v-98.6h20.2v14.8h3.2c1.9-4,5.2-7.7,10-11.2,4.8-3.5,11.9-5.2,21.4-5.2s14.1,1.7,19.8,5c5.9,3.3,10.5,8.1,13.8,14.2,3.3,6,5,13.3,5,21.8v59.2h-20.6v-57.6c0-8.5-2.1-14.8-6.4-18.8-4.3-4.1-10.1-6.2-17.6-6.2s-15.4,2.8-20.6,8.4c-5.1,5.6-7.6,13.7-7.6,24.4v49.8h-20.6Z"/>
  </g>
  <g>
    <circle class="st2" cx="188.8" cy="228.7" r="86.8"/>
    <path class="st1" d="M104.1,240.3c26.4,26.4,69.2,26.4,95.6,0,26.4-26.4,26.4-69.2,0-95.6-26.4-26.4-69.2-26.4-95.6,0-26.4,26.4-26.4,69.2,0,95.6ZM213.6,254.2c-34.1,34.1-89.3,34.1-123.4,0-34.1-34.1-34.1-89.3,0-123.4,34.1-34.1,89.3-34.1,123.4,0s34.1,89.3,0,123.4Z"/>
    <path d="M151.8,125.2c37.1,0,67.4,30.2,67.4,67.4s-30.2,67.4-67.4,67.4-67.4-30.2-67.4-67.4,30.2-67.4,67.4-67.4M151.8,105.2c-48.3,0-87.4,39.1-87.4,87.4s39.1,87.4,87.4,87.4,87.4-39.1,87.4-87.4-39.1-87.4-87.4-87.4h0Z"/>
  </g>
</svg>