<svg width="186" height="33" viewBox="0 0 186 33" fill="none" xmlns="http://www.w3.org/2000/svg">
<path d="M9.38354 32.835H20.3529L36.3445 20.5714L32.2475 19.4565C28.0183 18.0793 21.6746 15.3249 19.3617 10.6687C19.8904 14.6691 21.6085 18.3416 24.2517 21.3584L9.38354 32.835Z" fill="#11A2DC"/>
<path d="M27.027 0.765625H16.0576L0 13.0292L4.097 14.1441C8.32617 15.5213 14.6699 18.2757 16.9827 22.9319C16.4541 18.9315 14.736 15.259 12.0928 12.2423L27.027 0.765625Z" fill="#006AA2"/>
<path d="M56.1725 11.6405C55.776 11.9029 55.5778 12.3619 55.5778 12.821C55.5778 13.3456 55.8421 13.8047 56.3047 14.067C57.2959 14.5917 58.4193 14.9196 59.5426 15.1163C60.9964 15.3786 62.318 16.0344 63.4414 16.9526C64.4326 17.8707 64.8952 19.1823 64.8291 20.5595C64.8952 22.0679 64.2344 23.4451 63.0449 24.3632C61.7233 25.4125 60.0713 25.9371 58.3532 25.806C55.5117 25.8716 52.8024 24.7567 50.7539 22.7893L53.1328 19.9037C55.0492 21.5432 56.8333 22.3958 58.4193 22.3958C59.014 22.4614 59.6087 22.2646 60.1374 21.9367C60.5339 21.6744 60.7982 21.1497 60.7321 20.6907C60.7321 20.166 60.4678 19.707 60.0713 19.4446C59.2783 18.9856 58.3532 18.6577 57.4941 18.5265C55.8421 18.1986 54.3223 17.5428 52.9346 16.5591C52.0094 15.8377 51.5469 14.5917 51.5469 12.9522C51.4147 11.4438 52.1416 10.001 53.3311 9.08289C54.6527 8.16476 56.2386 7.64011 57.8245 7.70569C59.014 7.70569 60.2034 7.90244 61.3929 8.29592C62.5163 8.68941 63.5736 9.27963 64.4987 10.001L62.5163 12.8866C61.1947 11.7717 59.4766 11.1815 57.7585 11.1815C57.1637 11.1159 56.6351 11.3126 56.1725 11.6405Z" fill="#58595B"/>
<path d="M79.1685 8.09961H83.1334V25.6752H79.1685V18.7893H72.0979V25.6752H68.1331V8.09961H72.0979V15.4447H79.1685V8.09961Z" fill="#58595B"/>
<path d="M87.4946 8.09961H91.4595V25.6752H87.4946V8.09961Z" fill="#58595B"/>
<path d="M107.98 9.67355C109.235 10.7228 109.83 12.3624 109.83 14.5265C109.83 16.6907 109.169 18.2646 107.914 19.3139C106.658 20.2976 104.676 20.8223 102.099 20.8223H99.7197V25.7408H95.7549V8.09961H102.033C104.742 8.09961 106.724 8.62426 107.98 9.67355ZM105.072 16.5595C105.601 15.9037 105.865 15.0512 105.799 14.2642C105.865 13.4116 105.535 12.6247 104.874 12.1C104.015 11.641 103.024 11.3786 102.033 11.4442H99.7858V17.3465H102.429C103.685 17.3465 104.61 17.0842 105.072 16.5595Z" fill="#58595B"/>
<path d="M118.42 18.1978L121.592 8.09839H125.689L128.795 18.1978L132.297 8.09839H136.593L130.447 25.674H127.54L123.641 13.476L119.808 25.674H116.834L110.689 8.09839H114.984L118.42 18.1978Z" fill="#11A2DC"/>
<path d="M151.461 8.09863V11.5744H142.672V15.1814H150.602V18.526H142.672V22.1985H151.791V25.6743H138.773V8.09863H151.461Z" fill="#11A2DC"/>
<path d="M155.293 25.6743V8.09863H159.258V22.1985H166.792V25.6743H155.293Z" fill="#11A2DC"/>
<path d="M169.633 25.6743V8.09863H173.598V22.1985H181.131V25.6743H169.633Z" fill="#11A2DC"/>
<path d="M184.843 8.435C185.24 8.63174 185.504 8.95965 185.702 9.28755C186.099 10.0745 186.099 10.9926 185.702 11.714C185.504 12.1075 185.174 12.3698 184.843 12.5666C183.654 13.2224 182.2 12.8289 181.473 11.6485C181.077 10.9271 181.077 10.0089 181.473 9.22197C181.671 8.82849 182.002 8.56616 182.332 8.36942C183.125 7.97594 184.05 7.97594 184.843 8.435ZM184.645 12.3698C184.975 12.1731 185.24 11.9108 185.438 11.5829C185.834 10.9271 185.834 10.0745 185.438 9.41871C185.24 9.09081 184.975 8.82849 184.645 8.63174C183.984 8.23826 183.125 8.23826 182.464 8.63174C182.134 8.82849 181.87 9.09081 181.737 9.41871C181.341 10.0745 181.341 10.9271 181.737 11.5829C181.87 11.9108 182.134 12.1731 182.464 12.3698C183.191 12.7633 183.984 12.7633 184.645 12.3698ZM184.249 10.9271L184.711 11.714H184.315L183.852 10.9271C183.852 10.8615 183.786 10.7959 183.72 10.7959C183.654 10.7303 183.522 10.7303 183.456 10.7303H183.125V11.714H182.795V9.35313H183.786C183.984 9.35313 184.182 9.41871 184.381 9.54987C184.513 9.68103 184.579 9.87778 184.579 10.0745C184.579 10.2713 184.513 10.4024 184.447 10.5336C184.249 10.5992 184.116 10.6647 183.918 10.6647C184.05 10.7303 184.182 10.8615 184.249 10.9271ZM183.72 10.468C183.852 10.468 183.984 10.468 184.116 10.3368C184.315 10.1401 184.315 9.87778 184.116 9.68103C183.984 9.61545 183.852 9.61545 183.72 9.61545H183.125V10.468H183.72Z" fill="#11A2DC"/>
</svg>
